<svg id="visual" viewBox="0 0 960 540" width="960" height="540" xmlns="http://www.w3.org/2000/svg" xmlns:xlink="http://www.w3.org/1999/xlink" version="1.1"><rect x="0" y="0" width="960" height="540" fill="#FFFFFF"></rect><path d="M0 437L11.5 436.2C23 435.3 46 433.7 68.8 430.5C91.7 427.3 114.3 422.7 137.2 422.5C160 422.3 183 426.7 205.8 430.2C228.7 433.7 251.3 436.3 274.2 434.3C297 432.3 320 425.7 342.8 421C365.7 416.3 388.3 413.7 411.2 416.5C434 419.3 457 427.7 480 431.2C503 434.7 526 433.3 548.8 431.3C571.7 429.3 594.3 426.7 617.2 428C640 429.3 663 434.7 685.8 434.2C708.7 433.7 731.3 427.3 754.2 424.3C777 421.3 800 421.7 822.8 420.2C845.7 418.7 868.3 415.3 891.2 417.7C914 420 937 428 948.5 432L960 436L960 541L948.5 541C937 541 914 541 891.2 541C868.3 541 845.7 541 822.8 541C800 541 777 541 754.2 541C731.3 541 708.7 541 685.8 541C663 541 640 541 617.2 541C594.3 541 571.7 541 548.8 541C526 541 503 541 480 541C457 541 434 541 411.2 541C388.3 541 365.7 541 342.8 541C320 541 297 541 274.2 541C251.3 541 228.7 541 205.8 541C183 541 160 541 137.2 541C114.3 541 91.7 541 68.8 541C46 541 23 541 11.5 541L0 541Z" fill="#42ffad"></path><path d="M0 438L11.5 440.7C23 443.3 46 448.7 68.8 448.3C91.7 448 114.3 442 137.2 442.3C160 442.7 183 449.3 205.8 451C228.7 452.7 251.3 449.3 274.2 446C297 442.7 320 439.3 342.8 441.5C365.7 443.7 388.3 451.3 411.2 451.2C434 451 457 443 480 442.5C503 442 526 449 548.8 451.7C571.7 454.3 594.3 452.7 617.2 450.7C640 448.7 663 446.3 685.8 447.5C708.7 448.7 731.3 453.3 754.2 454.7C777 456 800 454 822.8 451.8C845.7 449.7 868.3 447.3 891.2 448C914 448.7 937 452.3 948.5 454.2L960 456L960 541L948.5 541C937 541 914 541 891.2 541C868.3 541 845.7 541 822.8 541C800 541 777 541 754.2 541C731.3 541 708.7 541 685.8 541C663 541 640 541 617.2 541C594.3 541 571.7 541 548.8 541C526 541 503 541 480 541C457 541 434 541 411.2 541C388.3 541 365.7 541 342.8 541C320 541 297 541 274.2 541C251.3 541 228.7 541 205.8 541C183 541 160 541 137.2 541C114.3 541 91.7 541 68.8 541C46 541 23 541 11.5 541L0 541Z" fill="#30d696"></path><path d="M0 475L11.5 473.2C23 471.3 46 467.7 68.8 466.3C91.7 465 114.3 466 137.2 468.3C160 470.7 183 474.3 205.8 474.8C228.7 475.3 251.3 472.7 274.2 470.7C297 468.7 320 467.3 342.8 465.5C365.7 463.7 388.3 461.3 411.2 460.7C434 460 457 461 480 463.7C503 466.3 526 470.7 548.8 473.7C571.7 476.7 594.3 478.3 617.2 477.5C640 476.7 663 473.3 685.8 471.2C708.7 469 731.3 468 754.2 467.3C777 466.7 800 466.3 822.8 465.2C845.7 464 868.3 462 891.2 461.2C914 460.3 937 460.7 948.5 460.8L960 461L960 541L948.5 541C937 541 914 541 891.2 541C868.3 541 845.7 541 822.8 541C800 541 777 541 754.2 541C731.3 541 708.7 541 685.8 541C663 541 640 541 617.2 541C594.3 541 571.7 541 548.8 541C526 541 503 541 480 541C457 541 434 541 411.2 541C388.3 541 365.7 541 342.8 541C320 541 297 541 274.2 541C251.3 541 228.7 541 205.8 541C183 541 160 541 137.2 541C114.3 541 91.7 541 68.8 541C46 541 23 541 11.5 541L0 541Z" fill="#24af7f"></path><path d="M0 491L11.5 491.5C23 492 46 493 68.8 491.7C91.7 490.3 114.3 486.7 137.2 486.8C160 487 183 491 205.8 492.7C228.7 494.3 251.3 493.7 274.2 493.8C297 494 320 495 342.8 493.8C365.7 492.7 388.3 489.3 411.2 486.8C434 484.3 457 482.7 480 484C503 485.3 526 489.7 548.8 491.7C571.7 493.7 594.3 493.3 617.2 492.2C640 491 663 489 685.8 489C708.7 489 731.3 491 754.2 492.8C777 494.7 800 496.3 822.8 494.5C845.7 492.7 868.3 487.3 891.2 486.7C914 486 937 490 948.5 492L960 494L960 541L948.5 541C937 541 914 541 891.2 541C868.3 541 845.7 541 822.8 541C800 541 777 541 754.2 541C731.3 541 708.7 541 685.8 541C663 541 640 541 617.2 541C594.3 541 571.7 541 548.8 541C526 541 503 541 480 541C457 541 434 541 411.2 541C388.3 541 365.7 541 342.8 541C320 541 297 541 274.2 541C251.3 541 228.7 541 205.8 541C183 541 160 541 137.2 541C114.3 541 91.7 541 68.8 541C46 541 23 541 11.5 541L0 541Z" fill="#1d8967"></path><path d="M0 512L11.5 512.8C23 513.7 46 515.3 68.8 516.3C91.7 517.3 114.3 517.7 137.2 516.2C160 514.7 183 511.3 205.8 511.2C228.7 511 251.3 514 274.2 514.3C297 514.7 320 512.3 342.8 511.3C365.7 510.3 388.3 510.7 411.2 512C434 513.3 457 515.7 480 515.3C503 515 526 512 548.8 510.5C571.7 509 594.3 509 617.2 508.5C640 508 663 507 685.8 508.5C708.7 510 731.3 514 754.2 515C777 516 800 514 822.8 512C845.7 510 868.3 508 891.2 507C914 506 937 506 948.5 506L960 506L960 541L948.5 541C937 541 914 541 891.2 541C868.3 541 845.7 541 822.8 541C800 541 777 541 754.2 541C731.3 541 708.7 541 685.8 541C663 541 640 541 617.2 541C594.3 541 571.7 541 548.8 541C526 541 503 541 480 541C457 541 434 541 411.2 541C388.3 541 365.7 541 342.8 541C320 541 297 541 274.2 541C251.3 541 228.7 541 205.8 541C183 541 160 541 137.2 541C114.3 541 91.7 541 68.8 541C46 541 23 541 11.5 541L0 541Z" fill="#19654e"></path></svg>